<svg width="50" height="50" viewBox="0 0 50 50" fill="none" xmlns="http://www.w3.org/2000/svg">
<path d="M25 0C11.195 0 0 11.195 0 25C0 38.805 11.195 50 25 50C38.805 50 50 38.805 50 25C50 11.195 38.81 0 25 0ZM12.335 25.84L12.44 25.67L18.945 15.495C19.04 15.35 19.265 15.365 19.335 15.525C20.42 17.96 21.36 20.99 20.92 22.875C20.735 23.65 20.22 24.7 19.64 25.67C19.565 25.81 19.485 25.95 19.395 26.085C19.355 26.145 19.285 26.18 19.21 26.18H12.525C12.345 26.18 12.24 25.985 12.335 25.84ZM41.32 29.34C41.32 29.435 41.265 29.515 41.185 29.55C40.68 29.765 38.955 30.56 38.24 31.555C36.41 34.1 35.015 37.74 31.89 37.74H18.86C14.24 37.74 10.5 33.985 10.5 29.35V29.2C10.5 29.08 10.6 28.98 10.725 28.98H17.985C18.13 28.98 18.235 29.11 18.225 29.255C18.17 29.725 18.26 30.21 18.485 30.65C18.915 31.525 19.81 32.07 20.775 32.07H24.37V29.265H20.815C20.635 29.265 20.525 29.055 20.63 28.905C20.67 28.845 20.71 28.785 20.76 28.715C21.095 28.235 21.575 27.495 22.055 26.65C22.38 26.08 22.695 25.47 22.95 24.86C23 24.75 23.04 24.635 23.085 24.525C23.155 24.33 23.225 24.145 23.275 23.965C23.325 23.81 23.37 23.65 23.41 23.5C23.53 22.98 23.58 22.43 23.58 21.86C23.58 21.635 23.57 21.4 23.55 21.18C23.54 20.935 23.51 20.69 23.48 20.445C23.46 20.23 23.42 20.015 23.38 19.795C23.325 19.47 23.255 19.145 23.175 18.82L23.145 18.695C23.085 18.47 23.03 18.26 22.96 18.035C22.755 17.335 22.525 16.65 22.275 16.01C22.185 15.755 22.085 15.51 21.98 15.27C21.83 14.9 21.675 14.565 21.535 14.25C21.46 14.105 21.4 13.975 21.34 13.84C21.27 13.69 21.2 13.54 21.125 13.395C21.075 13.285 21.015 13.18 20.975 13.08L20.535 12.27C20.475 12.16 20.575 12.025 20.695 12.06L23.445 12.805H23.455C23.46 12.805 23.46 12.805 23.465 12.805L23.825 12.91L24.225 13.02L24.37 13.06V11.43C24.37 10.64 25 10 25.785 10C26.175 10 26.53 10.16 26.78 10.42C27.035 10.68 27.195 11.035 27.195 11.43V13.855L27.49 13.935C27.51 13.945 27.535 13.955 27.555 13.97C27.625 14.02 27.73 14.1 27.86 14.2C27.965 14.28 28.075 14.38 28.205 14.485C28.47 14.7 28.79 14.975 29.135 15.29C29.225 15.37 29.315 15.45 29.4 15.535C29.845 15.95 30.345 16.435 30.825 16.975C30.96 17.13 31.09 17.28 31.225 17.445C31.355 17.61 31.5 17.77 31.62 17.93C31.785 18.145 31.955 18.37 32.11 18.605C32.18 18.715 32.265 18.83 32.33 18.94C32.53 19.235 32.7 19.54 32.865 19.845C32.935 19.985 33.005 20.14 33.065 20.29C33.25 20.7 33.395 21.115 33.485 21.535C33.515 21.625 33.535 21.72 33.545 21.81V21.83C33.575 21.95 33.585 22.08 33.595 22.215C33.635 22.64 33.615 23.07 33.525 23.5C33.485 23.68 33.435 23.85 33.375 24.035C33.31 24.21 33.25 24.39 33.17 24.565C33.015 24.92 32.835 25.28 32.62 25.61C32.55 25.735 32.465 25.865 32.385 25.99C32.295 26.12 32.2 26.245 32.12 26.365C32.005 26.52 31.885 26.68 31.76 26.825C31.65 26.975 31.54 27.125 31.415 27.26C31.245 27.465 31.08 27.655 30.905 27.84C30.805 27.96 30.695 28.085 30.58 28.195C30.47 28.32 30.355 28.43 30.255 28.53C30.08 28.705 29.94 28.835 29.82 28.95L29.535 29.205C29.495 29.245 29.44 29.265 29.385 29.265H27.195V32.07H29.95C30.565 32.07 31.15 31.855 31.625 31.45C31.785 31.31 32.49 30.7 33.325 29.78C33.355 29.745 33.39 29.725 33.43 29.715L41.035 27.515C41.18 27.475 41.32 27.58 41.32 27.73V29.34Z" fill="white"/>
</svg>
