<svg width="40" height="40" viewBox="0 0 40 40" fill="none" xmlns="http://www.w3.org/2000/svg">
<path d="M40 20C40 31.04 31.04 40 20 40C8.96 40 0 31.04 0 20C0 8.96 8.96 0 20 0C31.04 0 40 8.96 40 20Z" fill="#191818"/>
<path d="M9.87986 20.68L9.95986 20.56L15.1599 12.44C15.2399 12.32 15.3999 12.32 15.4799 12.48C16.3599 14.44 17.0799 16.84 16.7599 18.36C16.5999 19 16.1999 19.84 15.7199 20.6C15.6799 20.72 15.5999 20.84 15.5199 20.92C15.4799 20.96 15.4399 21 15.3599 21H9.99986C9.87986 20.96 9.79986 20.8 9.87986 20.68Z" fill="white"/>
<path d="M33.0399 22.2V23.48C33.0399 23.56 32.9999 23.6 32.9199 23.64C32.5199 23.8 31.1199 24.44 30.5599 25.24C29.0799 27.28 27.9599 30.2 25.4799 30.2H15.0399C11.3599 30.2 8.35992 27.2 8.35992 23.48V23.36C8.35992 23.28 8.43992 23.2 8.51992 23.2H14.3999C14.5199 23.2 14.5999 23.32 14.5999 23.4C14.5599 23.76 14.6399 24.16 14.7999 24.52C15.1599 25.24 15.8799 25.64 16.6399 25.64H19.5199V23.4H16.6799C16.5199 23.4 16.4399 23.24 16.5199 23.12C16.5599 23.08 16.5999 23.04 16.6399 22.96C16.9199 22.56 17.2799 22 17.6799 21.32C17.9599 20.88 18.1999 20.36 18.3999 19.88C18.4399 19.8 18.4799 19.72 18.5199 19.6C18.5599 19.44 18.6399 19.28 18.6799 19.16C18.7199 19.04 18.7599 18.92 18.7999 18.8C18.8799 18.4 18.9199 17.96 18.9199 17.48C18.9199 17.32 18.9199 17.12 18.8799 16.92C18.8799 16.72 18.8399 16.52 18.8399 16.32C18.8399 16.16 18.7999 15.96 18.7599 15.8C18.7199 15.52 18.6799 15.28 18.5999 15L18.5599 14.92C18.5199 14.76 18.4799 14.56 18.3999 14.4C18.2399 13.84 18.0399 13.28 17.8399 12.8C17.7599 12.6 17.6799 12.4 17.5999 12.2C17.4799 11.92 17.3599 11.64 17.2399 11.4C17.1999 11.28 17.1199 11.2 17.0799 11.08C17.0399 10.96 16.9599 10.84 16.9199 10.72C16.8799 10.64 16.8399 10.56 16.7999 10.48L16.4399 9.84C16.3999 9.76 16.4799 9.64 16.5599 9.68L18.7599 10.28L19.0399 10.36L19.3599 10.44L19.4799 10.48V9.16C19.4799 8.52 19.9999 8 20.5999 8C20.9199 8 21.1999 8.12 21.3999 8.32C21.5999 8.52 21.7199 8.8 21.7199 9.12V11.04L21.9599 11.12C21.9599 11.12 21.9999 11.12 21.9999 11.16C22.0399 11.2 22.1199 11.28 22.2399 11.36C22.3199 11.44 22.3999 11.52 22.5199 11.6C22.7199 11.76 22.9999 12 23.2799 12.24C23.3599 12.32 23.4399 12.36 23.4799 12.44C23.8399 12.76 24.2399 13.16 24.6399 13.6C24.7599 13.72 24.8399 13.84 24.9599 13.96C25.0799 14.08 25.1599 14.24 25.2799 14.36C25.3999 14.52 25.5599 14.72 25.6799 14.88C25.7199 14.96 25.7999 15.04 25.8399 15.16C25.9999 15.4 26.1199 15.64 26.2799 15.88C26.3199 16 26.3999 16.12 26.4399 16.24C26.5999 16.56 26.7199 16.88 26.7599 17.24C26.7999 17.32 26.7999 17.4 26.7999 17.44C26.8399 17.52 26.8399 17.64 26.8399 17.76C26.8799 18.12 26.8399 18.44 26.7999 18.8C26.7599 18.96 26.7199 19.08 26.6799 19.24C26.6399 19.36 26.5999 19.52 26.5199 19.68C26.3999 19.96 26.2399 20.24 26.0799 20.52C26.0399 20.6 25.9599 20.72 25.8799 20.84C25.7999 20.96 25.7199 21.04 25.6799 21.16C25.5999 21.28 25.4799 21.4 25.3999 21.52C25.3199 21.64 25.2399 21.76 25.1199 21.88C24.9999 22.04 24.8399 22.2 24.7199 22.36C24.6399 22.44 24.5599 22.56 24.4399 22.64C24.3599 22.72 24.2799 22.84 24.1599 22.92C24.0399 23.04 23.9199 23.16 23.7999 23.24L23.5599 23.44C23.5199 23.48 23.4799 23.48 23.4399 23.48H21.6799V25.72H23.8799C24.3599 25.72 24.8399 25.56 25.1999 25.24C25.3199 25.12 25.8799 24.64 26.5599 23.92C26.5999 23.88 26.5999 23.88 26.6399 23.88L32.7199 22.12C32.9599 22 33.0399 22.08 33.0399 22.2Z" fill="white"/>
</svg>
